<?xml version="1.0" encoding="UTF-8" standalone="no"?>
<svg
   viewBox="0 0 576 512"
   version="1.1"
   id="svg4"
   sodipodi:docname="folder-open.svg"
   inkscape:version="1.1.1 (eb90963e84, 2021-10-02)"
   xmlns:inkscape="http://www.inkscape.org/namespaces/inkscape"
   xmlns:sodipodi="http://sodipodi.sourceforge.net/DTD/sodipodi-0.dtd"
   xmlns="http://www.w3.org/2000/svg"
   xmlns:svg="http://www.w3.org/2000/svg">
  <defs
     id="defs8" />
  <sodipodi:namedview
     id="namedview6"
     pagecolor="#ffffff"
     bordercolor="#999999"
     borderopacity="1"
     inkscape:pageshadow="0"
     inkscape:pageopacity="0"
     inkscape:pagecheckerboard="0"
     showgrid="false"
     inkscape:zoom="0.33767111"
     inkscape:cx="57.7485"
     inkscape:cy="306.51127"
     inkscape:window-width="1366"
     inkscape:window-height="670"
     inkscape:window-x="0"
     inkscape:window-y="27"
     inkscape:window-maximized="1"
     inkscape:current-layer="svg4" />
  <!--! Font Awesome Pro 6.0.0-alpha3 by @fontawesome - https://fontawesome.com License - https://fontawesome.com/license (Commercial License) -->
  <path
     d="M566.6 211.6C557.5 199.1 543.4 192 527.1 192H134.2C114.3 192 96.2 204.5 89.23 223.1L32 375.8V96c0-17.64 14.36-32 32-32h117.5c8.549 0 16.58 3.328 22.63 9.375L258.7 128H448c17.64 0 32 14.36 32 32h32c0-35.35-28.65-64-64-64H272L226.7 50.75C214.7 38.74 198.5 32 181.5 32H64C28.65 32 0 60.65 0 96v320c0 35.35 28.65 64 64 64h403.1c21.11 0 39.53-13.53 45.81-33.69l60-192C578.4 239.6 575.8 224 566.6 211.6zM543.2 244.8l-60 192C481.1 443.5 475 448 467.1 448H64c-3.322 0-6.357-.9551-9.373-1.898c-2.184-1.17-4.109-2.832-5.596-4.977c-3.031-4.375-3.703-9.75-1.828-14.73l72-192C121.5 228.2 127.5 224 134.2 224h393.8c5.141 0 9.844 2.375 12.89 6.516C543.9 234.7 544.8 239.9 543.2 244.8z"
     id="path2"
     style="fill:#000000;fill-opacity:1" />
  <path
     style="fill:#d80027;fill-opacity:1;stroke:#d42f00;stroke-width:5.1796"
     d="m 52.417869,442.14621 c -1.954565,-1.95457 -3.553754,-6.19478 -3.553754,-9.4227 0,-5.81827 65.114245,-182.38213 73.029795,-198.02768 l 4.12031,-8.14402 h 204.19652 204.19651 l 4.34322,6.66329 c 4.00864,6.14999 1.95161,14.29326 -26.70338,105.7116 -17.07564,54.47658 -32.48913,100.78643 -34.25217,102.91079 -4.50009,5.42228 -419.961971,5.7238 -425.377051,0.30872 z"
     id="path978" />
  <path
     style="fill:#d80027;fill-opacity:1;stroke:#d42f00;stroke-width:5.1796"
     d="m 93.337431,440.52075 c -20.331782,-0.51539 -38.088152,-2.05835 -39.458599,-3.4288 -2.36713,-2.36713 38.666589,-119.1984 62.653078,-178.38594 l 11.23063,-27.71201 200.84101,-0.76119 c 145.05465,-0.54976 201.95253,0.1613 204.84274,2.55995 2.47625,2.05511 3.33976,6.29652 2.26519,11.12631 -3.54833,15.94866 -25.83952,89.44734 -42.86647,141.3396 l -17.57909,53.57499 -67.08714,1.95242 c -64.10087,1.86551 -236.5137,1.72021 -314.841349,-0.26532 z"
     id="path1313" />
  <path
     style="fill:#d80027;fill-opacity:1;stroke:#d42f00;stroke-width:5.1796"
     d="m 64.6077,434.75125 c -6.174891,-1.20085 -6.294413,-1.81879 -2.642856,-13.66365 7.248933,-23.51396 31.945574,-92.48126 49.777796,-139.00839 l 17.87664,-46.64302 h 200.98153 c 195.74845,0 200.98153,0.14707 200.98153,5.64818 0,5.77958 -22.09804,79.93134 -45.05742,151.19375 -11.20448,34.77703 -13.77855,40.12471 -20.17093,41.90563 -7.77484,2.16607 -390.74456,2.70704 -401.74629,0.5675 z"
     id="path1352" />
  <path
     style="fill:#d80027;fill-opacity:1;stroke:#d42f00;stroke-width:5.1796"
     d="m 63.671423,429.80746 c 0,-3.39842 32.292449,-94.95259 49.154547,-139.36089 l 19.76329,-52.04892 170.62229,0.33148 c 93.84226,0.18231 182.84241,1.1818 197.7781,2.22109 l 27.15577,1.88963 -18.79184,62.19069 c -24.63894,81.54148 -36.45197,117.19069 -40.4161,121.96717 -2.6134,3.14894 -41.73324,3.89494 -204.24929,3.89494 -110.55922,0 -201.016767,-0.48834 -201.016767,-1.08519 z"
     id="path1391" />
  <path
     style="fill:#d80027;fill-opacity:1;stroke:#d42f00;stroke-width:5.1796"
     d=""
     id="path1549" />
</svg>
