<?xml version="1.0" encoding="UTF-8" standalone="no"?>
<!-- Svg Vector Icons : http://www.onlinewebfonts.com/icon -->

<svg
   xmlns:dc="http://purl.org/dc/elements/1.1/"
   xmlns:cc="http://creativecommons.org/ns#"
   xmlns:rdf="http://www.w3.org/1999/02/22-rdf-syntax-ns#"
   xmlns:svg="http://www.w3.org/2000/svg"
   xmlns="http://www.w3.org/2000/svg"
   xmlns:sodipodi="http://sodipodi.sourceforge.net/DTD/sodipodi-0.dtd"
   xmlns:inkscape="http://www.inkscape.org/namespaces/inkscape"
   version="1.1"
   x="0px"
   y="0px"
   viewBox="0 0 32 32"
   enable-background="new 0 0 1000 1000"
   xml:space="preserve"
   id="svg12"
   sodipodi:docname="cc7efd6334b67c23fb295cb9af910710.svg"
   width="32"
   height="32"
   inkscape:version="0.92.3 (2405546, 2018-03-11)"><defs
   id="defs16" /><sodipodi:namedview
   pagecolor="#ffffff"
   bordercolor="#666666"
   borderopacity="1"
   objecttolerance="10"
   gridtolerance="10"
   guidetolerance="10"
   inkscape:pageopacity="0"
   inkscape:pageshadow="2"
   inkscape:window-width="1920"
   inkscape:window-height="1015"
   id="namedview14"
   showgrid="false"
   inkscape:zoom="3.776"
   inkscape:cx="37.16535"
   inkscape:cy="32.59196"
   inkscape:window-x="0"
   inkscape:window-y="36"
   inkscape:window-maximized="1"
   inkscape:current-layer="svg12" />
<metadata
   id="metadata2"> Svg Vector Icons : http://www.onlinewebfonts.com/icon <rdf:RDF><cc:Work
     rdf:about=""><dc:format>image/svg+xml</dc:format><dc:type
       rdf:resource="http://purl.org/dc/dcmitype/StillImage" /><dc:title></dc:title></cc:Work></rdf:RDF></metadata>
<g
   id="g10"
   transform="matrix(0.03066166,0,0,0.03020043,0.94494955,1.2752038)"
   style="fill:#d40000"><g
     transform="matrix(0.1,0,0,-0.1,0,511)"
     id="g8"
     style="fill:#d40000"><path
       d="m 4882.9,4749.4 c -107.3,-32.6 -216.4,-143.6 -245.2,-250.9 -15.3,-49.8 -21.1,-1107 -21.1,-3376.6 V -2182 L 3502,-1067.3 C 2887.2,-456.3 2356.7,60.8 2320.3,78 c -101.5,51.7 -283.5,32.6 -375.4,-36.4 -134.1,-103.4 -185.8,-249 -143.6,-409.9 23,-84.3 132.2,-197.3 1492,-1560.9 986.4,-988.3 1492,-1482.4 1545.6,-1507.3 91.9,-46 212.6,-49.8 310.3,-9.6 92,38.3 2955.3,2894 3016.6,3007 120.7,227.9 -24.9,517.1 -272,542 -216.4,21.1 -132.1,91.9 -1375.2,-1151.1 L 5382.8,-2182 v 3303.8 c 0,2269.6 -5.7,3326.8 -21.1,3376.6 -30.7,111.1 -137.9,218.3 -252.8,252.8 -114.9,34.5 -112.9,34.6 -226,-1.8 z"
       id="path4"
       inkscape:connector-curvature="0"
       style="fill:#d40000" /><path
       d="m 431.8,-1837.2 c -9.6,-3.8 -42.1,-11.5 -72.8,-17.2 -78.5,-17.2 -199.2,-136 -235.6,-233.7 -59.4,-157 -1.9,-597.6 124.5,-944.2 279.6,-764.2 965.3,-1334.9 1792.7,-1492 157.1,-30.6 409.9,-32.6 2959.1,-32.6 2556.9,0 2800.1,1.9 2961,32.6 1074.5,204.9 1857.8,1080.2 1934.4,2166.2 15.3,206.8 -3.8,289.2 -93.8,388.8 -137.9,159 -356.3,178.1 -515.2,44 -97.7,-78.5 -130.2,-162.8 -149.4,-398.4 -11.5,-113 -36.4,-266.2 -59.4,-339 -136,-444.3 -448.2,-802.5 -865.7,-994 -314.1,-145.5 -57.5,-134.1 -3211.9,-134.1 -2685.2,0 -2830.8,1.9 -2949.5,34.5 -496.1,141.7 -894.4,494.1 -1078.3,955.7 -67,164.7 -109.2,346.7 -109.2,469.3 0,183.8 -34.5,291.1 -122.6,379.2 -88,88 -231.6,141.7 -308.3,114.9 z"
       id="path6"
       inkscape:connector-curvature="0"
       style="fill:#d40000" /></g></g>
</svg>