<?xml version="1.0" encoding="UTF-8" standalone="no"?>
<svg
   id="Capa_1"
   enable-background="new 0 0 512 512"
   height="32"
   viewBox="0 0 32 32"
   width="32"
   version="1.1"
   sodipodi:docname="setting.svg"
   inkscape:version="1.1.1 (eb90963e84, 2021-10-02)"
   xmlns:inkscape="http://www.inkscape.org/namespaces/inkscape"
   xmlns:sodipodi="http://sodipodi.sourceforge.net/DTD/sodipodi-0.dtd"
   xmlns="http://www.w3.org/2000/svg"
   xmlns:svg="http://www.w3.org/2000/svg"
   xmlns:rdf="http://www.w3.org/1999/02/22-rdf-syntax-ns#"
   xmlns:cc="http://creativecommons.org/ns#"
   xmlns:dc="http://purl.org/dc/elements/1.1/">
  <metadata
     id="metadata74">
    <rdf:RDF>
      <cc:Work
         rdf:about="">
        <dc:format>image/svg+xml</dc:format>
        <dc:type
           rdf:resource="http://purl.org/dc/dcmitype/StillImage" />
      </cc:Work>
    </rdf:RDF>
  </metadata>
  <defs
     id="defs72" />
  <sodipodi:namedview
     pagecolor="#ffffff"
     bordercolor="#666666"
     borderopacity="1"
     objecttolerance="10"
     gridtolerance="10"
     guidetolerance="10"
     inkscape:pageopacity="0"
     inkscape:pageshadow="2"
     inkscape:window-width="1366"
     inkscape:window-height="670"
     id="namedview70"
     showgrid="false"
     showguides="true"
     inkscape:zoom="10.429825"
     inkscape:cx="5.5130358"
     inkscape:cy="12.799831"
     inkscape:window-x="0"
     inkscape:window-y="27"
     inkscape:window-maximized="1"
     inkscape:current-layer="g43"
     inkscape:pagecheckerboard="0">
    <inkscape:grid
       type="xygrid"
       id="grid76" />
  </sodipodi:namedview>
  <linearGradient
     id="SVGID_1_"
     gradientUnits="userSpaceOnUse"
     x1="514.73999"
     x2="-406.35199"
     y1="325.58899"
     y2="121.569">
    <stop
       offset=".007"
       stop-color="#9494ff"
       id="stop2" />
    <stop
       offset=".992"
       stop-color="#ffe8dc"
       stop-opacity="0"
       id="stop4" />
  </linearGradient>
  <g
     id="g67"
     transform="translate(0,-384)">
    <g
       id="g65"
       transform="matrix(0.10490409,0,0,0.10490409,-1.2922328,380.8303)">
      <g
         id="g17"
         style="fill:#0000cc">
        <path
           d="m 292.507,219.653 v -41.835 c 0,-2.761 -2.239,-5 -5,-5 h -28.366 c -2.169,-7.927 -5.311,-15.447 -9.291,-22.433 l 20.055,-20.062 c 1.952,-1.953 1.952,-5.118 -10e-4,-7.07 L 240.322,93.671 c -1.952,-1.952 -5.118,-1.953 -7.07,-0.001 l -20.062,20.055 c -6.986,-3.979 -14.506,-7.121 -22.433,-9.291 V 76.068 c 0,-2.761 -2.239,-5 -5,-5 h -41.835 c -2.761,0 -5,2.239 -5,5 v 28.366 c -7.927,2.169 -15.447,5.311 -22.433,9.291 L 96.428,93.67 c -1.953,-1.952 -5.118,-1.952 -7.07,0.001 l -29.582,29.582 c -1.952,1.952 -1.953,5.118 -0.001,7.07 l 20.055,20.062 c -3.979,6.986 -7.121,14.506 -9.291,22.433 H 42.173 c -2.761,0 -5,2.239 -5,5 v 41.835 c 0,2.761 2.239,5 5,5 h 28.366 c 2.169,7.927 5.311,15.447 9.291,22.433 l -20.055,20.062 c -1.952,1.953 -1.952,5.118 0.001,7.07 L 89.358,303.8 c 1.952,1.952 5.118,1.953 7.07,10e-4 l 20.062,-20.055 c 6.986,3.979 14.506,7.121 22.433,9.291 v 28.366 c 0,2.761 2.239,5 5,5 h 41.835 c 2.761,0 5,-2.239 5,-5 v -28.366 c 7.927,-2.169 15.447,-5.311 22.433,-9.291 l 20.062,20.055 c 1.953,1.952 5.118,1.952 7.07,-10e-4 l 29.582,-29.582 c 1.952,-1.952 1.953,-5.118 0.001,-7.07 l -20.055,-20.062 c 3.979,-6.986 7.121,-14.506 9.291,-22.433 h 28.366 c 2.76,0 4.999,-2.239 4.999,-5 z m -127.667,35.65 c -31.242,0 -56.568,-25.326 -56.568,-56.568 0,-31.242 25.326,-56.568 56.568,-56.568 31.242,0 56.568,25.326 56.568,56.568 0,31.242 -25.326,56.568 -56.568,56.568 z"
           id="path15"
           inkscape:connector-curvature="0"
           style="opacity:0.1" />
      </g>
      <g
         id="g43">
        <g
           id="g25">
          <g
             id="g23" />
        </g>
        <g
           id="g33">
          <g
             id="g31" />
        </g>
        <g
           id="g41">
          <path
             d="m 292.507,192.653 v -41.835 c 0,-2.761 -2.239,-5 -5,-5 h -28.366 c -2.169,-7.927 -5.311,-15.447 -9.291,-22.433 l 20.055,-20.062 c 1.952,-1.953 1.952,-5.118 -10e-4,-7.07 L 240.322,66.671 c -1.952,-1.952 -5.118,-1.953 -7.07,-0.001 L 213.19,86.725 c -6.986,-3.979 -14.506,-7.121 -22.433,-9.291 V 49.068 c 0,-2.761 -2.239,-5 -5,-5 h -41.835 c -2.761,0 -5,2.239 -5,5 v 28.366 c -7.927,2.169 -15.447,5.311 -22.433,9.291 L 96.428,66.67 c -1.953,-1.952 -5.118,-1.952 -7.07,0.001 L 59.776,96.252 c -1.952,1.952 -1.953,5.118 -0.001,7.07 l 20.055,20.062 c -3.979,6.986 -7.121,14.506 -9.291,22.433 H 42.173 c -2.761,0 -5,2.239 -5,5 v 41.835 c 0,2.761 2.239,5 5,5 h 28.366 c 2.169,7.927 5.311,15.447 9.291,22.433 l -20.055,20.062 c -1.952,1.953 -1.952,5.118 0.001,7.07 l 29.582,29.582 c 1.952,1.952 5.118,1.953 7.07,0.001 l 20.062,-20.055 c 6.986,3.979 14.506,7.121 22.433,9.291 v 28.366 c 0,2.761 2.239,5 5,5 h 41.835 c 2.761,0 5,-2.239 5,-5 v -28.366 c 7.927,-2.169 15.447,-5.311 22.433,-9.291 l 12.98019,12.97566 7.08181,7.07934 c 1.953,1.952 5.118,1.952 7.07,-0.001 l 29.582,-29.582 c 1.952,-1.952 1.953,-5.118 0.001,-7.07 l -20.055,-20.062 c 3.979,-6.986 7.121,-14.506 9.291,-22.433 h 28.366 c 2.76,0.001 4.999,-2.238 4.999,-4.999 z m -127.667,35.65 c -31.242,0 -56.568,-25.326 -56.568,-56.568 0,-31.242 25.326,-56.568 56.568,-56.568 31.242,0 56.568,25.326 56.568,56.568 0,31.242 -25.326,56.568 -56.568,56.568 z"
             id="path35"
             style="fill:#d80027;fill-opacity:1"
             inkscape:connector-curvature="0"
             sodipodi:nodetypes="sssccccscccssssccccccccssssccccscccsssscccccsccccssssss" />
          <g
             id="g39">
            <path
               d="m 185.758,304.401 h -41.835 c -5.514,0 -10,-4.486 -10,-10 v -24.626 c -5.696,-1.792 -11.235,-4.087 -16.542,-6.852 l -17.417,17.412 c -3.899,3.898 -10.244,3.898 -14.142,-0.002 L 56.24,250.752 c -3.898,-3.896 -3.899,-10.24 -0.001,-14.14 l 17.412,-17.417 c -2.765,-5.308 -5.06,-10.848 -6.852,-16.543 H 42.173 c -5.514,0 -10,-4.486 -10,-10 v -41.835 c 0,-5.514 4.486,-10 10,-10 h 24.625 c 1.792,-5.696 4.087,-11.235 6.852,-16.542 L 56.238,106.857 c -3.897,-3.897 -3.897,-10.241 0,-14.141 L 85.82,63.135 c 3.899,-3.897 10.243,-3.898 14.142,-0.002 l 17.417,17.412 c 5.306,-2.765 10.845,-5.06 16.542,-6.852 V 49.068 c 0,-5.514 4.486,-10 10,-10 h 41.835 c 5.514,0 10,4.486 10,10 v 24.626 c 5.696,1.792 11.235,4.087 16.542,6.851 l 17.417,-17.411 c 3.9,-3.897 10.244,-3.896 14.141,0.002 l 29.582,29.581 c 3.898,3.9 3.898,10.243 0,14.141 l -17.411,17.418 c 2.765,5.307 5.06,10.846 6.852,16.542 h 24.625 c 5.514,0 10,4.486 10,10 v 41.835 c 0,5.514 -4.486,10 -10,10 h -24.625 c -1.792,5.695 -4.087,11.235 -6.852,16.543 l 17.412,17.416 c 3.897,3.899 3.897,10.243 -0.001,14.141 l -29.582,29.582 c -1.888,1.889 -4.399,2.93 -7.07,2.93 -2.671,0 -5.182,-1.039 -7.071,-2.928 l -17.417,-17.412 c -5.306,2.765 -10.845,5.06 -16.542,6.852 v 24.626 c 0.002,5.512 -4.484,9.998 -9.998,9.998 z m -69.267,-52.656 c 0.847,0 1.699,0.215 2.474,0.655 6.702,3.818 13.86,6.782 21.277,8.813 2.173,0.594 3.68,2.569 3.68,4.822 v 28.366 h 41.835 v -28.366 c 0,-2.253 1.507,-4.229 3.68,-4.822 7.417,-2.03 14.576,-4.994 21.277,-8.813 1.958,-1.112 4.417,-0.783 6.01,0.809 l 20.062,20.055 29.582,-29.582 -20.055,-20.061 c -1.592,-1.593 -1.923,-4.053 -0.809,-6.01 3.818,-6.703 6.783,-13.862 8.813,-21.278 0.595,-2.174 2.569,-3.681 4.823,-3.681 h 28.366 V 150.817 H 259.14 c -2.253,0 -4.228,-1.507 -4.823,-3.681 -2.029,-7.416 -4.994,-14.575 -8.812,-21.277 -1.115,-1.956 -0.784,-4.417 0.808,-6.01 L 266.368,99.786 236.786,70.205 216.725,90.26 c -1.594,1.591 -4.053,1.921 -6.01,0.809 -6.702,-3.818 -13.86,-6.782 -21.277,-8.813 -2.173,-0.594 -3.68,-2.569 -3.68,-4.822 V 49.068 h -41.835 v 28.366 c 0,2.253 -1.507,4.229 -3.68,4.822 -7.417,2.03 -14.576,4.994 -21.277,8.813 -1.956,1.114 -4.417,0.785 -6.01,-0.809 L 92.893,70.206 63.312,99.787 83.367,119.85 c 1.592,1.593 1.923,4.054 0.808,6.01 -3.818,6.702 -6.783,13.861 -8.812,21.277 -0.595,2.174 -2.569,3.681 -4.823,3.681 H 42.173 v 41.835 H 70.54 c 2.253,0 4.228,1.507 4.823,3.681 2.029,7.416 4.994,14.575 8.813,21.278 1.114,1.957 0.784,4.417 -0.809,6.01 l -20.055,20.061 29.582,29.582 20.062,-20.055 c 0.961,-0.963 2.241,-1.465 3.535,-1.465 z m 48.349,-18.442 c -10.328,0 -20.551,-2.613 -29.564,-7.557 -2.421,-1.328 -3.308,-4.367 -1.979,-6.788 1.329,-2.421 4.368,-3.309 6.788,-1.979 7.544,4.138 16.104,6.324 24.756,6.324 28.435,0 51.568,-23.134 51.568,-51.568 0,-28.434 -23.133,-51.567 -51.568,-51.567 -28.435,0 -51.567,23.133 -51.567,51.567 0,8.018 1.798,15.711 5.345,22.865 1.226,2.474 0.215,5.474 -2.259,6.7 -2.476,1.225 -5.474,0.215 -6.701,-2.259 -4.237,-8.547 -6.385,-17.734 -6.385,-27.307 0,-33.948 27.619,-61.567 61.567,-61.567 33.949,0 61.568,27.619 61.568,61.567 -0.001,33.95 -27.62,61.569 -61.569,61.569 z"
               id="path37"
               style="fill:#000000;fill-opacity:1"
               inkscape:connector-curvature="0" />
          </g>
        </g>
      </g>
      <g
         id="g47" />
      <g
         id="g51" />
      <g
         id="g55" />
      <g
         id="g59" />
      <g
         id="g63" />
    </g>
  </g>
</svg>
