<?xml version="1.0" encoding="utf-8"?>
<!-- Svg Vector Icons : http://www.onlinewebfonts.com/icon -->
<!DOCTYPE svg PUBLIC "-//W3C//DTD SVG 1.1//EN" "http://www.w3.org/Graphics/SVG/1.1/DTD/svg11.dtd">
<svg version="1.1" xmlns="http://www.w3.org/2000/svg" xmlns:xlink="http://www.w3.org/1999/xlink" x="0px" y="0px" viewBox="0 0 1000 1000" enable-background="new 0 0 1000 1000" xml:space="preserve">
<metadata> Svg Vector Icons : http://www.onlinewebfonts.com/icon </metadata>
<g><g transform="translate(0.000000,511.000000) scale(0.100000,-0.100000)"><path d="M4899.8,4995c-92.9-28.3-175.7-80.8-228.2-141.4c-36.4-44.4-252.4-666.3-795.6-2293.9L3132.9,328.5H1899.1c-1411.5,0-1383.2,2-1518.5-153.5C186.8-43.1,243.4-360.1,499.8-487.3l107-52.5h1118.7c886.5,0,1116.7-6.1,1110.6-24.2c-6-14.1-290.8-866.3-632-1894c-573.5-1724.4-621.9-1875.9-607.8-1960.7c52.5-355.4,478.6-496.8,729-240.3c76.7,78.8,96.9,129.2,466.5,1237.8l385.7,1155h1823.4h1823.4l385.7-1155c369.5-1108.6,389.7-1159,466.4-1237.8c250.4-256.5,676.5-115.1,728.9,240.3c14.1,84.8-34.3,236.2-607.8,1960.7c-341.3,1027.8-626,1879.9-632,1894c-6.1,18.2,224.1,24.2,1110.6,24.2h1118.7l103,50.5c256.4,129.2,317,458.4,123.2,668.4c-139.3,151.5-115.1,149.4-1518.5,149.4H6868.5l-745.1,2237.3l-745.1,2235.3l-84.8,82.8C5182.5,4993,5031,5035.4,4899.8,4995z M5481.3,1766.2c256.4-773.4,468.5-1413.5,468.5-1423.6c0-8.1-426.1-14.1-949-14.1c-521,0-949,6.1-949,14.1c0,30.3,939,2833,949,2833C5006.8,3175.6,5222.8,2541.6,5481.3,1766.2z M6398-973.9c74.7-232.2,137.3-426.1,137.3-428.1c0-4-690.6-6.1-1536.7-6.1c-1221.6,0-1534.6,6.1-1528.6,26.3c6,12.1,70.7,208,145.4,434.1l137.3,407.9l1253.9-4l1251.9-6L6398-973.9z"/></g></g>
</svg>